
	<svg xmlns="http://www.w3.org/2000/svg" xmlns:xlink="http://www.w3.org/1999/xlink" version="1.1" width="128" height="128" viewBox="0 0 100 100">


		<defs>
			<g id="background">
<path fill="url(#background-gradient)" stroke="none" d=" M 84.2 84.2 Q 98.35 70.1 98.35 50 98.35 30 84.2 15.85 70.1 1.6 50 1.6 30 1.6 15.85 15.85 1.6 30 1.6 50 1.6 70.1 15.85 84.2 30 98.45 50 98.45 70.1 98.45 84.2 84.2 Z"/>
</g><mask id="mask">
<path fill="#FFFFFF" stroke="none" d=" M 83 83.1 Q 96.75 69.35 96.75 50 96.75 30.7 83 16.95 69.25 3.2 50 3.2 30.7 3.2 16.95 16.95 3.2 30.7 3.2 50 3.2 69.35 16.95 83.1 30.7 96.85 50 96.85 69.25 96.85 83 83.1 Z"/>
</mask><g id="bottom-2">
<path fill="#ffffff" fill-opacity="1" stroke="none" d=" M 29.6 17.95 Q 30.7 17.15 30.2 15.95 29.9 15.25 29.15 15.05 28.45 14.8 27.85 15.25 21.4 19.35 16.75 25.55 12.1 31.8 10.1 39.25 10 40.1 10.5 40.8 10.9 41.4 11.7 41.4 13 41.4 13.3 40.1 15.15 33.2 19.35 27.45 23.6 21.8 29.6 17.95 M 47.65 9.25 Q 47.15 8.75 46.45 8.85 42.7 9.15 38.85 10.3 38.15 10.5 37.85 11.2 37.55 11.8 37.85 12.5 38.35 13.7 39.8 13.4 43.6 12.4 46.65 12.1 48.15 12.1 48.15 10.5 48.15 9.75 47.65 9.25 Z"/>
</g>
			
	<linearGradient id="background-gradient" x1="0" y1="0" y2="1" x2="0" >
		<stop stop-color="#EB4A4B" offset="0%"/>
		<stop stop-color="#EB4A4B" offset="100%"/>
	</linearGradient>

			
			
			<g transform="scale(0.39464856640307183) translate(-19.179996490478516 -13.510000228881836)" id="picture"><path d="M69.63 211.578c6.635 0 12.584-3.176 17.617-9.528 5.033-6.352 7.778-14.116 8.465-23.643h17.844c-.229 9.88-2.516 19.055-6.634 27.877s-9.38 15.88-16.015 21.173c-6.634 5.293-13.726 7.764-21.276 7.764-15.1 0-26.996-7.764-35.918-23.29s-13.27-36.347-13.27-63.52v-4.94c0-16.585 2.06-31.406 5.95-44.11C30.28 86.657 36 76.777 43.321 69.366c7.32-7.058 16.014-10.586 26.08-10.586 12.354 0 22.65 5.646 30.885 17.29 8.236 11.293 12.583 26.114 13.04 44.464H95.483c-.458-10.94-3.203-20.114-8.007-27.172S76.723 82.776 69.402 82.776c-9.608 0-16.93 5.293-22.191 15.88s-8.007 26.113-8.007 46.227v5.646c0 19.761 2.516 34.582 7.778 45.169s12.812 15.88 22.649 15.88zm201.677 55.321h-20.614V26.1h20.614v240.8zM183.149 13.51v30.716h31.563v16.638H183.15v78.71c0 5.12 1.28 8.96 4.265 11.519 2.986 2.56 7.678 3.84 14.502 3.84 3.413 0 8.104-.32 13.65-1.28v17.597c-7.678 1.6-14.93 2.24-22.18 2.24-12.796 0-22.606-2.88-29.43-8.639-6.399-5.76-9.811-14.078-9.811-24.957v-79.03h-30.71V44.226h30.71V13.51h29.004z"/></g>
			
	<linearGradient id="picture-gradient" x1="0" y1="0" y2="1" x2="0" >
		<stop stop-color="#ffffff" offset="0%"/>
		<stop stop-color="#e5eff9" offset="100%"/>
	</linearGradient>

		</defs>

		

			<use xlink:href="#background" fill="url(#background-gradient)" />

		

			<g mask="url(#mask)">
				<g transform="
				        translate(
                                50 50
)
                            translate(0 0)  scale(0.5)  
                            translate(
                                -50 -50
)">
						<use xlink:href="#picture" fill="url(#picture-gradient)"  />
				</g>
			</g>

		<use xlink:href="#bottom-2" />



	</svg>
